<svg width="48" height="48" xmlns="http://www.w3.org/2000/svg">
 <title/>

 <g>
  <title>background</title>
  <rect fill="none" id="canvas_background" height="402" width="582" y="-1" x="-1"/>
 </g>
 <g>
  <title>Layer 1</title>
  <path id="svg_1" d="m20,31l-12,0a3,3 0 0 1 -3,-3l0,-6a3,3 0 0 1 3,-3l12,0a3,3 0 0 1 3,3l0,6a3,3 0 0 1 -3,3zm-12,-10a1,1 0 0 0 -1,1l0,6a1,1 0 0 0 1,1l12,0a1,1 0 0 0 1,-1l0,-6a1,1 0 0 0 -1,-1l-12,0z"/>
  <path id="svg_2" d="m25,16l-10,0a1,1 0 0 1 -0.92,-0.62a1,1 0 0 1 0.21,-1.09l10,-10a1,1 0 0 1 1.09,-0.21a1,1 0 0 1 0.62,0.92l0,10a1,1 0 0 1 -1,1zm-7.59,-2l6.59,0l0,-6.59l-6.59,6.59z"/>
  <path id="svg_3" d="m12.19,27.19l-1.1,0l-1,-1.6l-1,1.6l-1,0l1.5,-2.51l-1.42,-2.39l1.09,0l0.88,1.47l0.86,-1.47l1.1,0l-1.42,2.38l1.51,2.52z"/>
  <path id="svg_4" d="m13.69,26.27l1.87,0l0,0.92l-2.84,0l0,-4.9l1,0l-0.03,3.98z"/>
  <path id="svg_5" d="m17.69,27.29a2.17,2.17 0 0 1 -1.23,-0.29a1.74,1.74 0 0 1 -0.7,-0.88l0.83,-0.48a1.11,1.11 0 0 0 1.13,0.74a0.93,0.93 0 0 0 0.59,-0.14a0.44,0.44 0 0 0 0.19,-0.37a0.47,0.47 0 0 0 -0.23,-0.41a3.66,3.66 0 0 0 -0.83,-0.31a4.91,4.91 0 0 1 -0.55,-0.19a2.4,2.4 0 0 1 -0.46,-0.27a1.07,1.07 0 0 1 -0.35,-0.41a1.55,1.55 0 0 1 -0.11,-0.59a1.29,1.29 0 0 1 0.47,-1.06a1.72,1.72 0 0 1 1.14,-0.4a1.91,1.91 0 0 1 1,0.29a2.07,2.07 0 0 1 0.71,0.81l-0.82,0.47a1,1 0 0 0 -0.93,-0.63a0.78,0.78 0 0 0 -0.48,0.14a0.44,0.44 0 0 0 -0.17,0.35a0.46,0.46 0 0 0 0.2,0.38a2.67,2.67 0 0 0 0.73,0.31l0.34,0.11l0.32,0.11l0.31,0.16a1.49,1.49 0 0 1 0.24,0.18a1,1 0 0 1 0.22,0.25a1,1 0 0 1 0.12,0.3a1.23,1.23 0 0 1 0.06,0.39a1.32,1.32 0 0 1 -0.5,1.08a2,2 0 0 1 -1.24,0.36z"/>
  <path id="svg_6" d="m40,43l-6.57,0a1,1 0 0 1 0,-2l6.57,0a1,1 0 0 0 1,-1l0,-33a1,1 0 0 0 -1,-1l-14.59,0l-9.41,9.41l0,4.59a1,1 0 0 1 -2,0l0,-5a1,1 0 0 1 0.29,-0.71l10,-10a1,1 0 0 1 0.71,-0.29l15,0a3,3 0 0 1 3,3l0,33a3,3 0 0 1 -3,3z"/>
  <path id="svg_7" d="m30.57,43l-13.57,0a3,3 0 0 1 -3,-3l0,-10a1,1 0 0 1 2,0l0,10a1,1 0 0 0 1,1l13.57,0a1,1 0 0 1 0,2z"/>
  <path id="svg_8" d="m32,45a1,1 0 0 1 -0.81,-0.42l-5,-7a1,1 0 0 1 0.81,-1.58l1,0l0,-5a1,1 0 0 1 1,-1l6,0a1,1 0 0 1 1,1l0,5l1,0a1,1 0 0 1 0.81,1.58l-5,7a1,1 0 0 1 -0.81,0.42zm-3.06,-7l3.06,4.28l3.06,-4.28l-0.06,0a1,1 0 0 1 -1,-1l0,-5l-4,0l0,5a1,1 0 0 1 -1,1l-0.06,0z"/>
 </g>
</svg>