<svg width="48" height="48" xmlns="http://www.w3.org/2000/svg">
 <title/>

 <g>
  <title>background</title>
  <rect fill="none" id="canvas_background" height="402" width="582" y="-1" x="-1"/>
 </g>
 <g>
  <title>Layer 1</title>
  <path id="svg_1" d="m21,31l-13,0a3,3 0 0 1 -3,-3l0,-6a3,3 0 0 1 3,-3l13,0a3,3 0 0 1 3,3l0,6a3,3 0 0 1 -3,3zm-13,-10a1,1 0 0 0 -1,1l0,6a1,1 0 0 0 1,1l13,0a1,1 0 0 0 1,-1l0,-6a1,1 0 0 0 -1,-1l-13,0z"/>
  <path id="svg_2" d="m25,16l-10,0a1,1 0 0 1 -0.92,-0.62a1,1 0 0 1 0.21,-1.09l10,-10a1,1 0 0 1 1.09,-0.21a1,1 0 0 1 0.62,0.92l0,10a1,1 0 0 1 -1,1zm-7.59,-2l6.59,0l0,-6.59l-6.59,6.59z"/>
  <path id="svg_3" d="m10.28,22.29a1.62,1.62 0 0 1 1.19,0.48a1.57,1.57 0 0 1 0.53,1.17a1.6,1.6 0 0 1 -0.49,1.17a1.65,1.65 0 0 1 -1.19,0.47l-0.9,0l0,1.61l-1,0l0,-4.9l1.86,0zm-1.86,2.39a0.64,0.64 0 0 0 0.51,-0.22a0.7,0.7 0 0 0 0.21,-0.52a0.73,0.73 0 0 0 -0.21,-0.54a0.66,0.66 0 0 0 -0.51,-0.21l1,0l0,1.49l-1,0z"/>
  <path id="svg_4" d="m14.53,22.29a2.24,2.24 0 0 1 1.68,0.71a2.57,2.57 0 0 1 0,3.48a2.2,2.2 0 0 1 -1.68,0.71l-1.95,0l0,-4.9l1.95,0zm-1.95,4a1.34,1.34 0 0 0 1,-0.43a1.71,1.71 0 0 0 0,-2.2a1.37,1.37 0 0 0 -1,-0.42l-1,0l0,3.05l1,0z"/>
  <path id="svg_5" d="m20.5,23.22l-2,0l0,1.16l1.91,0l0,0.92l-1.87,0l0,1.89l-1,0l0,-4.9l2.96,0l0,0.93z"/>
  <path id="svg_6" d="m40,43l-6.57,0a1,1 0 0 1 0,-2l6.57,0a1,1 0 0 0 1,-1l0,-33a1,1 0 0 0 -1,-1l-14.59,0l-9.41,9.41l0,4.59a1,1 0 0 1 -2,0l0,-5a1,1 0 0 1 0.29,-0.71l10,-10a1,1 0 0 1 0.71,-0.29l15,0a3,3 0 0 1 3,3l0,33a3,3 0 0 1 -3,3z"/>
  <path id="svg_7" d="m30.57,43l-13.57,0a3,3 0 0 1 -3,-3l0,-10a1,1 0 0 1 2,0l0,10a1,1 0 0 0 1,1l13.57,0a1,1 0 0 1 0,2z"/>
  <path id="svg_8" d="m32,45a1,1 0 0 1 -0.81,-0.42l-5,-7a1,1 0 0 1 0.81,-1.58l1,0l0,-5a1,1 0 0 1 1,-1l6,0a1,1 0 0 1 1,1l0,5l1,0a1,1 0 0 1 0.81,1.58l-5,7a1,1 0 0 1 -0.81,0.42zm-3.06,-7l3.06,4.28l3.06,-4.28l-0.06,0a1,1 0 0 1 -1,-1l0,-5l-4,0l0,5a1,1 0 0 1 -1,1l-0.06,0z"/>
 </g>
</svg>